/* XPM */
static char * roolifetime_xpm[] = {
"48 48 17 1",
" 	c None",
".	c #AFEEFF",
"+	c #6EE1FF",
"@	c #F0FCFF",
"#	c #08BCEA",
"$	c #D6F7FF",
"%	c #49DAFF",
"&	c #C9F4FF",
"*	c #9EECFF",
"=	c #18C5F2",
"-	c #32D4FD",
";	c #87E7FF",
">	c #23CCF7",
",	c #34D6FF",
"'	c #00B7E6",
")	c #FFFFFF",
"!	c #000000",
"        ))))))))))))))))))))))))))))))))        ",
"      ))))))))))))))))))))))))))))))))))))      ",
"    ))))))))))))))))))))))))))))))))))))))))    ",
"   ))))))))))))))))))))))))))))))))))))))))))   ",
"  ))))))))))))))))))))))))))))))))))))))))))))  ",
"  ))))))))))))))))))))))))))))))))))))))))))))  ",
" )))))))))))))))))))))))))))))))))))))))))))))) ",
" )))))))))))&;%,%+$)))))))))))))))))))))))))))) ",
"))))))))))$+,,,,,,,*))))))))))))))))))))))))))))",
"))))))))).,,,,,,,,,,;)))))))))))))))))))))))))))",
"))))))))*,,,,,,,,,,,,;))))))))))))))))))))))))))",
"))))))).,,,,,,,,,,,,,,*)))))))))))))))))))))))))",
"))))))&,,,,,,,,,,,,,,,,$))))))))))))))))))))))))",
")))))@%,,,,,,,,,,,,,,,,%@)))))))))))))))))))))))",
")))))+,,,,,,,,,,,,,,,,,,+)))))))))))))))))))))))",
")))).,,,,,,,,,,,,,,,,,,,,*))))))))))))))))))))))",
")))@%,,,,,,,,,,,,,,,,,,,,,$)))))))))))))))))))))",
")));,,,,,,,,,,,,,,,,,,,,,,%)))))))))))))))))))))",
"))$,,,,,,,,,,,,,,,,,,,,,,,,;))))))))))))))))))))",
"))+,,,,,,,,,,,,,,,,,,,,,,,,,&)))))))))))))))))))",
")$,,,,,,,,,,,,,,,,,,,,,,,,,,%@))))))))))))))))))",
")+,,,,,,,,,,,,,,,,,,,,,,,,,,,+))))))))))))))))))",
"$,,,,,,,,,,,,,,,,,,,,,,,,,,,,,*)))))))))))))))))",
"+-,,,,,,,,,,,,,,,,,,,,,,,,,,,,,$))))))))))))))))",
",,,,,,,,,,,,,,,,,,,,,,,,,,,,,,,%@)))))))))))))))",
",,,,,,,,->==##'''##>--,,,,,,,,,,+@))))))))))))))",
",,,,,,>='''''''''''''#>,,,,,,,,-,;))))))))))))))",
",,,,>#'''''''''''''''''#>-,,,,,,,,*)))))))))))))",
",,>#'''''''''''''''''''''#=-,,,,,,,*))))))))))))",
">#'''''''''''''''''''''''''#=,,,,,,,*)))))))))))",
"'''''''''''''''''''''''''''''#=-,,,,,;))))))))))",
"''''''''''''''''''''''''''''''''=-,,,,+@))))))))",
"''''''''''''''''''''''''''''''''''=>-,,%&)))))))",
"'''''''''''''''''''''''''''''''''''''=>-,+&)))))",
"''''''''''''''''''''''''''''''''''''''''#==-;.$)",
"''''''''''''''''''''''''''''''''''''''''''''''''",
"''''''''''''''''''''''''''''''''''''''''''''''''",
"''''''''''''''''''''''''''''''''''''''''''''''''",
"''''''''''''''''''''''''''''''''''''''''''''''''",
"''''''''''''''''''''''''''''''''''''''''''''''''",
" '''''''''''''''''''''''''''''''''''''''''''''' ",
" '''''''''''''''''''''''''''''''''''''''''''''' ",
"  ''''''''''''''''''''''''''''''''''''''''''''  ",
"  ''''''''''''''''''''''''''''''''''''''''''''  ",
"   ''''''''''''''''''''''''''''''''''''''''''   ",
"    ''''''''''''''''''''''''''''''''''''''''    ",
"      ''''''''''''''''''''''''''''''''''''      ",
"        ''''''''''''''''''''''''''''''''        "};
